<?xml version="1.0" standalone="no"?>
<!DOCTYPE svg PUBLIC "-//W3C//DTD SVG 20010904//EN"
 "http://www.w3.org/TR/2001/REC-SVG-20010904/DTD/svg10.dtd">
<svg version="1.0" xmlns="http://www.w3.org/2000/svg"
 width="16.000000pt" height="16.000000pt" viewBox="0 0 16.000000 16.000000"
 preserveAspectRatio="xMidYMid meet">
<metadata>
Created by potrace 1.11, written by Peter Selinger 2001-2013
</metadata>
<g transform="translate(0.000000,16.000000) scale(0.003712,-0.003712)"
fill="#000000" stroke="none">
<path d="M1301 3746 l-51 -52 0 -399 0 -400 168 -44 c92 -25 182 -48 200 -53
l32 -9 0 -136 0 -135 -22 6 c-13 4 -35 9 -50 12 l-28 7 0 101 0 101 -99 26
-99 26 -51 -51 -51 -52 0 -199 0 -200 293 -78 c160 -42 296 -77 301 -77 5 0
31 22 58 50 l48 50 0 398 0 399 -37 10 c-21 6 -111 31 -200 55 l-163 43 0 133
c0 144 -2 139 62 122 l37 -11 3 -101 3 -102 97 -25 98 -25 50 51 50 51 0 201
c0 110 -2 201 -4 201 -3 0 -98 25 -213 56 -114 31 -247 66 -295 79 l-86 22
-51 -51z"/>
<path d="M2101 3531 l-51 -50 0 -700 0 -700 43 -11 c23 -6 66 -18 95 -26 60
-17 59 -17 124 50 29 30 38 48 38 73 0 31 2 33 28 27 15 -4 36 -10 48 -15 31
-11 121 83 126 132 l3 36 48 -14 47 -14 0 -99 0 -98 33 -10 c17 -6 62 -18 100
-28 l67 -17 0 -101 0 -101 99 -26 100 -26 50 51 51 52 0 700 0 701 -97 26 -98
25 -52 -51 -53 -51 0 -433 c0 -238 -3 -433 -6 -433 -3 0 -25 5 -50 11 l-44 11
0 102 0 101 -100 26 -100 25 -49 -50 c-38 -39 -51 -60 -53 -86 l-3 -36 -47 14
-48 13 0 499 c0 466 -1 499 -17 504 -47 14 -168 46 -175 46 -4 0 -29 -22 -57
-49z m589 -1175 c0 -2 -8 -10 -17 -17 -16 -13 -17 -12 -4 4 13 16 21 21 21 13z"/>
<path d="M1498 2090 c-38 -39 -48 -56 -48 -84 l0 -34 -49 13 -49 13 -51 -52
-51 -52 0 -499 0 -500 99 -26 99 -26 51 51 51 52 0 232 c0 128 3 232 8 232 4
0 71 -16 150 -37 l142 -37 0 -301 0 -302 43 -10 c23 -6 68 -18 99 -26 l57 -14
50 51 51 52 0 500 0 500 -100 24 -100 25 0 102 c0 57 -2 103 -4 103 -3 0 -47
11 -98 26 -51 14 -101 27 -111 29 -10 2 -51 13 -93 25 -41 11 -80 20 -87 20
-6 0 -33 -23 -59 -50z m205 -315 c71 -20 134 -38 138 -41 14 -8 11 -64 -3 -64
-7 0 -31 5 -53 12 -22 6 -42 12 -45 13 -3 0 -47 11 -97 25 l-93 24 0 33 c0 18
5 33 11 33 6 0 70 -16 142 -35z"/>
<path d="M2302 1877 l-52 -53 2 -599 3 -599 397 -106 397 -106 51 51 50 51 0
400 0 401 -194 51 c-106 29 -196 52 -199 52 -4 0 -29 -23 -57 -51 l-50 -50 0
-199 0 -199 43 -11 c165 -44 157 -40 157 -77 0 -18 -2 -33 -5 -33 -15 0 -281
73 -288 79 -4 4 -6 156 -5 337 l3 331 245 -67 245 -67 53 51 52 50 0 102 0
101 -157 42 c-216 57 -605 160 -623 166 -10 3 -36 -16 -68 -48z"/>
</g>
</svg>
